SplineFontDB: 3.0
FontName: Tell
FullName: Tell
FamilyName: Tell
Weight: Regular
Copyright: Created by trashman with FontForge 2.0 (http://fontforge.sf.net)
UComments: "2010-10-27: Created." 
Version: 001.000
ItalicAngle: 0
UnderlinePosition: -100
UnderlineWidth: 50
Ascent: 800
Descent: 200
LayerCount: 3
Layer: 0 0 "Back"  1
Layer: 1 0 "Fore"  0
Layer: 2 0 "backup"  0
NeedsXUIDChange: 1
XUID: [1021 658 797806517 15109394]
OS2Version: 0
OS2_WeightWidthSlopeOnly: 0
OS2_UseTypoMetrics: 1
CreationTime: 1288224558
ModificationTime: 1288289874
OS2TypoAscent: 0
OS2TypoAOffset: 1
OS2TypoDescent: 0
OS2TypoDOffset: 1
OS2TypoLinegap: 0
OS2WinAscent: 0
OS2WinAOffset: 1
OS2WinDescent: 0
OS2WinDOffset: 1
HheadAscent: 0
HheadAOffset: 1
HheadDescent: 0
HheadDOffset: 1
OS2Vendor: 'PfEd'
MarkAttachClasses: 1
DEI: 91125
Encoding: UnicodeBmp
UnicodeInterp: none
NameList: Adobe Glyph List
DisplaySize: -48
AntiAlias: 1
FitToEm: 1
WinInfo: 96 12 4
BeginChars: 65536 63

StartChar: a
Encoding: 97 97 0
Width: 486
VWidth: 0
Flags: HWO
HStem: -3 57<132.878 237.881 365.5 428.5> 389 21G<89.5 92> 389 21G<89.5 92> 444 49<150.833 278.727>
VStem: 25 73<87.842 208.21> 312 76<91.3849 280.27 309.423 407.865>
LayerCount: 3
Fore
SplineSet
301 282 m 0x9c
 260 275 208 263 171 250 c 0
 125 234 98 201 98 151 c 0
 98 86 146 54 204 54 c 0
 241 54 291 91 307 103 c 0
 311 106 312 106 312 113 c 2
 312 275 l 2
 312 286 310 284 301 282 c 0x9c
457 72 m 0
 460 72 471 56 471 53 c 0
 471 50 468 48 462 44 c 2
 408 11 l 2
 399 5 390 0 380 0 c 0
 351 0 329 21 321 38 c 0
 313 55 317 72 303 72 c 0
 302 72 255 31 229 11 c 0
 217 1 200 -3 170 -3 c 0
 114 -3 25 21 25 122 c 0
 25 267 144 277 299 311 c 0
 313 314 312 316 312 332 c 0
 312 399 281 444 215 444 c 0
 162 444 131 424 99 394 c 0
 95 390 93 389 91 389 c 0xdc
 88 389 76 401 76 404 c 0
 76 406 78 408 82 412 c 2
 154 478 l 2
 159 482 193 493 240 493 c 0
 328 493 388 453 388 368 c 2
 388 104 l 2
 388 78 400 56 421 56 c 0
 436 56 453 72 457 72 c 0
EndSplineSet
EndChar

StartChar: b
Encoding: 98 98 1
Width: 562
VWidth: 0
Flags: HW
LayerCount: 3
Fore
SplineSet
188 456 m 0
 221 472 280 503 307 503 c 0
 462 503 520 376 520 260 c 0
 520 221 518 204 504 162 c 0
 495 134 391 -12 275 -12 c 0
 196 -12 142 34 126 34 c 2
 106 34 l 2
 93 34 92 43 92 53 c 2
 92 676 l 2
 92 706 70 706 22 706 c 0
 17 706 15 712 15 718 c 0
 15 724 17 730 22 730 c 2
 68 730 l 2
 129 730 145 736 160 736 c 0
 166 736 168 732 168 715 c 2
 168 473 l 2
 168 455 169 449 173 449 c 0
 176 449 180 452 188 456 c 0
444 223 m 0
 444 354 368 443 269 443 c 0
 230 443 203 433 187 423 c 0
 170 413 168 411 168 401 c 2
 168 129 l 2
 168 71 238 33 296 33 c 0
 383 33 444 124 444 223 c 0
EndSplineSet
EndChar

StartChar: c
Encoding: 99 99 2
Width: 164
VWidth: 0
Flags: HW
LayerCount: 3
Fore
SplineSet
75 171 m 0
 56 171 44 182 44 202 c 0
 44 227 66 252 91 252 c 0
 109 252 120 232 120 213 c 0
 120 187 99 171 75 171 c 0
EndSplineSet
EndChar

StartChar: d
Encoding: 100 100 3
Width: 164
VWidth: 0
Flags: HW
LayerCount: 3
Fore
SplineSet
75 171 m 0
 56 171 44 182 44 202 c 0
 44 227 66 252 91 252 c 0
 109 252 120 232 120 213 c 0
 120 187 99 171 75 171 c 0
EndSplineSet
EndChar

StartChar: e
Encoding: 101 101 4
Width: 478
VWidth: 0
Flags: HW
HStem: -4 68<185.042 321.983> 275 38<101.072 359.996> 463 39<179.558 294.748>
VStem: 24 77<155.84 330.733> 360 87<278.5 393.945>
LayerCount: 3
Fore
SplineSet
108 313 m 2
 336 313 l 2
 355 313 360 315 360 326 c 0
 360 390 306 463 237 463 c 0
 148 463 105 373 101 320 c 0
 101 313 101 313 108 313 c 2
267 64 m 0
 345 64 383 102 425 143 c 0
 433 151 433 148 441 141 c 0
 446 136 450 134 450 131 c 0
 450 129 448 127 445 123 c 0
 358 29 308 -4 234 -4 c 0
 98 -4 24 102 24 219 c 0
 24 312 55 359 101 417 c 0
 134 458 191 502 249 502 c 0
 420 502 447 355 447 284 c 0
 447 273 440 273 434 273 c 2
 108 275 l 2
 99 275 98 276 98 266 c 0
 100 172 142 64 267 64 c 0
EndSplineSet
Layer: 2
SplineSet
101 313 m 5
 336 313 l 6
 355 313 360 315 360 326 c 4
 360 390 306 463 237 463 c 4
 144 463 101 365 101 313 c 5
267 64 m 4
 349 64 387 106 432 150 c 5
 452 131 l 5
 361 31 310 -4 234 -4 c 4
 98 -4 24 102 24 219 c 4
 24 312 55 359 101 417 c 4
 134 458 191 502 249 502 c 4
 433 502 446 336 447 273 c 5
 98 275 l 5
 98 179 138 64 267 64 c 4
114 313 m 2
 352 313 l 2
 361 313 364 315 364 321 c 0
 364 380 316 466 237 466 c 0
 154 466 106 380 104 325 c 0
 104 315 106 313 114 313 c 2
267 64 m 0
 373 64 423 151 431 151 c 0
 434 151 450 135 450 132 c 0
 450 124 370 50 346 35 c 0
 311 13 296 -3 230 -3 c 0
 103 -3 24 106 24 220 c 0
 24 313 55 359 101 417 c 0
 134 458 191 502 249 502 c 0
 430 502 447 340 447 286 c 0
 447 276 445 274 432 274 c 2
 115 274 l 2
 102 274 99 273 99 258 c 0
 99 178 140 64 267 64 c 0
EndSplineSet
EndChar

StartChar: f
Encoding: 102 102 5
Width: 164
VWidth: 0
Flags: HW
LayerCount: 3
Fore
SplineSet
75 171 m 0
 56 171 44 182 44 202 c 0
 44 227 66 252 91 252 c 0
 109 252 120 232 120 213 c 0
 120 187 99 171 75 171 c 0
EndSplineSet
EndChar

StartChar: g
Encoding: 103 103 6
Width: 164
VWidth: 0
Flags: HW
LayerCount: 3
Fore
SplineSet
75 171 m 0
 56 171 44 182 44 202 c 0
 44 227 66 252 91 252 c 0
 109 252 120 232 120 213 c 0
 120 187 99 171 75 171 c 0
EndSplineSet
EndChar

StartChar: h
Encoding: 104 104 7
Width: 164
VWidth: 0
Flags: HW
LayerCount: 3
Fore
SplineSet
75 171 m 0
 56 171 44 182 44 202 c 0
 44 227 66 252 91 252 c 0
 109 252 120 232 120 213 c 0
 120 187 99 171 75 171 c 0
EndSplineSet
EndChar

StartChar: i
Encoding: 105 105 8
Width: 164
VWidth: 0
Flags: HW
LayerCount: 3
Fore
SplineSet
75 171 m 0
 56 171 44 182 44 202 c 0
 44 227 66 252 91 252 c 0
 109 252 120 232 120 213 c 0
 120 187 99 171 75 171 c 0
EndSplineSet
EndChar

StartChar: j
Encoding: 106 106 9
Width: 164
VWidth: 0
Flags: HW
LayerCount: 3
Fore
SplineSet
75 171 m 0
 56 171 44 182 44 202 c 0
 44 227 66 252 91 252 c 0
 109 252 120 232 120 213 c 0
 120 187 99 171 75 171 c 0
EndSplineSet
EndChar

StartChar: k
Encoding: 107 107 10
Width: 164
VWidth: 0
Flags: HW
LayerCount: 3
Fore
SplineSet
75 171 m 0
 56 171 44 182 44 202 c 0
 44 227 66 252 91 252 c 0
 109 252 120 232 120 213 c 0
 120 187 99 171 75 171 c 0
EndSplineSet
EndChar

StartChar: l
Encoding: 108 108 11
Width: 164
VWidth: 0
Flags: HW
LayerCount: 3
Fore
SplineSet
75 171 m 0
 56 171 44 182 44 202 c 0
 44 227 66 252 91 252 c 0
 109 252 120 232 120 213 c 0
 120 187 99 171 75 171 c 0
EndSplineSet
EndChar

StartChar: m
Encoding: 109 109 12
Width: 164
VWidth: 0
Flags: HW
LayerCount: 3
Fore
SplineSet
75 171 m 0
 56 171 44 182 44 202 c 0
 44 227 66 252 91 252 c 0
 109 252 120 232 120 213 c 0
 120 187 99 171 75 171 c 0
EndSplineSet
EndChar

StartChar: n
Encoding: 110 110 13
Width: 164
VWidth: 0
Flags: HW
LayerCount: 3
Fore
SplineSet
75 171 m 0
 56 171 44 182 44 202 c 0
 44 227 66 252 91 252 c 0
 109 252 120 232 120 213 c 0
 120 187 99 171 75 171 c 0
EndSplineSet
EndChar

StartChar: o
Encoding: 111 111 14
Width: 569
VWidth: 0
Flags: HW
HStem: -18 39<239.792 379.4> 460 35<193.801 325.683>
VStem: 26 84<173.189 337.03> 455 88<148.142 319.325>
LayerCount: 3
Fore
SplineSet
287 495 m 0
 426 495 543 398 543 255 c 0
 543 117 442 -18 287 -18 c 0
 138 -18 26 96 26 237 c 0
 26 375 137 495 287 495 c 0
249 461 m 0
 165 461 110 378 110 297 c 0
 110 171 180 21 315 21 c 0
 418 21 455 117 455 207 c 0
 455 330 374 461 249 461 c 0
EndSplineSet
EndChar

StartChar: p
Encoding: 112 112 15
Width: 164
VWidth: 0
Flags: HW
LayerCount: 3
Fore
SplineSet
75 171 m 0
 56 171 44 182 44 202 c 0
 44 227 66 252 91 252 c 0
 109 252 120 232 120 213 c 0
 120 187 99 171 75 171 c 0
EndSplineSet
EndChar

StartChar: q
Encoding: 113 113 16
Width: 164
VWidth: 0
Flags: HW
LayerCount: 3
Fore
SplineSet
75 171 m 0
 56 171 44 182 44 202 c 0
 44 227 66 252 91 252 c 0
 109 252 120 232 120 213 c 0
 120 187 99 171 75 171 c 0
EndSplineSet
EndChar

StartChar: r
Encoding: 114 114 17
Width: 388
VWidth: 0
Flags: HW
LayerCount: 3
Fore
SplineSet
27 15 m 0
 27 25 29 26 36 26 c 2
 60 26 l 2
 90 26 101 40 101 75 c 2
 101 409 l 2
 101 438 88 448 65 448 c 2
 36 448 l 2
 30 448 27 449 27 458 c 0
 27 470 30 471 37 471 c 2
 58 471 l 2
 115 471 157 480 168 480 c 0
 174 480 175 479 175 466 c 2
 175 429 l 2
 175 412 179 407 183 407 c 0
 187 407 191 412 195 416 c 2
 220 441 l 2
 241 462 267 488 304 488 c 0
 336 488 366 468 366 430 c 0
 366 390 344 367 309 367 c 0
 296 367 298 375 298 386 c 0
 298 404 284 419 261 419 c 0
 242 419 210 392 192 374 c 0
 180 362 177 359 177 334 c 2
 177 82 l 2
 177 37 190 26 218 26 c 2
 246 26 l 2
 254 26 256 25 256 13 c 0
 256 1 255 0 247 -0 c 2
 39 -0 l 2
 28 0 27 1 27 15 c 0
EndSplineSet
EndChar

StartChar: s
Encoding: 115 115 18
Width: 164
VWidth: 0
Flags: HW
LayerCount: 3
Fore
SplineSet
75 171 m 0
 56 171 44 182 44 202 c 0
 44 227 66 252 91 252 c 0
 109 252 120 232 120 213 c 0
 120 187 99 171 75 171 c 0
EndSplineSet
EndChar

StartChar: t
Encoding: 116 116 19
Width: 308
VWidth: 0
Flags: HW
LayerCount: 3
Fore
SplineSet
160 113 m 2
 160 76 200 51 232 51 c 0
 258 51 283 73 288 73 c 0
 291 73 300 57 300 53 c 0
 300 49 293 45 282 39 c 2
 206 -3 l 2
 193 -10 184 -13 175 -13 c 0
 133 -13 84 24 84 81 c 2
 84 423 l 2
 84 437 81 438 61 438 c 2
 28 438 l 2
 18 438 14 438 14 447 c 0
 14 455 21 457 28 460 c 0
 90 490 122 544 136 622 c 0
 139 638 139 647 151 647 c 0
 160 647 160 641 160 629 c 2
 160 488 l 2
 160 474 162 473 180 473 c 2
 276 473 l 2
 285 473 288 472 288 462 c 2
 288 448 l 2
 288 438 287 438 277 438 c 2
 180 438 l 2
 162 438 160 436 160 423 c 2
 160 113 l 2
EndSplineSet
EndChar

StartChar: u
Encoding: 117 117 20
Width: 164
VWidth: 0
Flags: HW
LayerCount: 3
Fore
SplineSet
75 171 m 0
 56 171 44 182 44 202 c 0
 44 227 66 252 91 252 c 0
 109 252 120 232 120 213 c 0
 120 187 99 171 75 171 c 0
EndSplineSet
EndChar

StartChar: v
Encoding: 118 118 21
Width: 164
VWidth: 0
Flags: HW
LayerCount: 3
Fore
SplineSet
75 171 m 0
 56 171 44 182 44 202 c 0
 44 227 66 252 91 252 c 0
 109 252 120 232 120 213 c 0
 120 187 99 171 75 171 c 0
EndSplineSet
EndChar

StartChar: w
Encoding: 119 119 22
Width: 164
VWidth: 0
Flags: HW
LayerCount: 3
Fore
SplineSet
75 171 m 0
 56 171 44 182 44 202 c 0
 44 227 66 252 91 252 c 0
 109 252 120 232 120 213 c 0
 120 187 99 171 75 171 c 0
EndSplineSet
EndChar

StartChar: x
Encoding: 120 120 23
Width: 164
VWidth: 0
Flags: HW
LayerCount: 3
Fore
SplineSet
75 171 m 0
 56 171 44 182 44 202 c 0
 44 227 66 252 91 252 c 0
 109 252 120 232 120 213 c 0
 120 187 99 171 75 171 c 0
EndSplineSet
EndChar

StartChar: y
Encoding: 121 121 24
Width: 164
VWidth: 0
Flags: HW
LayerCount: 3
Fore
SplineSet
75 171 m 0
 56 171 44 182 44 202 c 0
 44 227 66 252 91 252 c 0
 109 252 120 232 120 213 c 0
 120 187 99 171 75 171 c 0
EndSplineSet
EndChar

StartChar: z
Encoding: 122 122 25
Width: 164
VWidth: 0
Flags: HW
LayerCount: 3
Fore
SplineSet
75 171 m 0
 56 171 44 182 44 202 c 0
 44 227 66 252 91 252 c 0
 109 252 120 232 120 213 c 0
 120 187 99 171 75 171 c 0
EndSplineSet
EndChar

StartChar: zero
Encoding: 48 48 52
Width: 164
VWidth: 0
Flags: HW
LayerCount: 3
Fore
SplineSet
75 171 m 0
 56 171 44 182 44 202 c 0
 44 227 66 252 91 252 c 0
 109 252 120 232 120 213 c 0
 120 187 99 171 75 171 c 0
EndSplineSet
EndChar

StartChar: one
Encoding: 49 49 53
Width: 164
VWidth: 0
Flags: HW
LayerCount: 3
Fore
SplineSet
75 171 m 0
 56 171 44 182 44 202 c 0
 44 227 66 252 91 252 c 0
 109 252 120 232 120 213 c 0
 120 187 99 171 75 171 c 0
EndSplineSet
EndChar

StartChar: two
Encoding: 50 50 54
Width: 164
VWidth: 0
Flags: HW
LayerCount: 3
Fore
SplineSet
75 171 m 0
 56 171 44 182 44 202 c 0
 44 227 66 252 91 252 c 0
 109 252 120 232 120 213 c 0
 120 187 99 171 75 171 c 0
EndSplineSet
EndChar

StartChar: three
Encoding: 51 51 55
Width: 164
VWidth: 0
Flags: HW
LayerCount: 3
Fore
SplineSet
75 171 m 0
 56 171 44 182 44 202 c 0
 44 227 66 252 91 252 c 0
 109 252 120 232 120 213 c 0
 120 187 99 171 75 171 c 0
EndSplineSet
EndChar

StartChar: four
Encoding: 52 52 56
Width: 164
VWidth: 0
Flags: HW
LayerCount: 3
Fore
SplineSet
75 171 m 0
 56 171 44 182 44 202 c 0
 44 227 66 252 91 252 c 0
 109 252 120 232 120 213 c 0
 120 187 99 171 75 171 c 0
EndSplineSet
EndChar

StartChar: five
Encoding: 53 53 57
Width: 164
VWidth: 0
Flags: HW
LayerCount: 3
Fore
SplineSet
75 171 m 0
 56 171 44 182 44 202 c 0
 44 227 66 252 91 252 c 0
 109 252 120 232 120 213 c 0
 120 187 99 171 75 171 c 0
EndSplineSet
EndChar

StartChar: six
Encoding: 54 54 58
Width: 164
VWidth: 0
Flags: HW
LayerCount: 3
Fore
SplineSet
75 171 m 0
 56 171 44 182 44 202 c 0
 44 227 66 252 91 252 c 0
 109 252 120 232 120 213 c 0
 120 187 99 171 75 171 c 0
EndSplineSet
EndChar

StartChar: seven
Encoding: 55 55 59
Width: 164
VWidth: 0
Flags: HW
LayerCount: 3
Fore
SplineSet
75 171 m 0
 56 171 44 182 44 202 c 0
 44 227 66 252 91 252 c 0
 109 252 120 232 120 213 c 0
 120 187 99 171 75 171 c 0
EndSplineSet
EndChar

StartChar: eight
Encoding: 56 56 60
Width: 164
VWidth: 0
Flags: HW
LayerCount: 3
Fore
SplineSet
75 171 m 0
 56 171 44 182 44 202 c 0
 44 227 66 252 91 252 c 0
 109 252 120 232 120 213 c 0
 120 187 99 171 75 171 c 0
EndSplineSet
EndChar

StartChar: nine
Encoding: 57 57 61
Width: 164
VWidth: 0
Flags: HW
LayerCount: 3
Fore
SplineSet
75 171 m 0
 56 171 44 182 44 202 c 0
 44 227 66 252 91 252 c 0
 109 252 120 232 120 213 c 0
 120 187 99 171 75 171 c 0
EndSplineSet
EndChar

